<svg width="20" height="23" viewBox="0 0 20 23" fill="none" xmlns="http://www.w3.org/2000/svg">
<path d="M18.8484 0.0330823L6.07735 3.46995C5.6891 3.57569 5.42169 3.91296 5.42169 4.29646V15.9442C4.88795 15.6483 4.27572 15.4663 3.61446 15.4663C1.62102 15.4663 0 17.0076 0 18.9031C0 20.7986 1.62102 22.34 3.61446 22.34C5.60789 22.34 7.22892 20.7986 7.22892 18.9031C7.22892 18.7072 7.22892 8.38174 7.22892 8.38174L18.1928 5.43584V12.5074C17.659 12.2114 17.0468 12.0294 16.3855 12.0294C14.3921 12.0294 12.7711 13.5708 12.7711 15.4663C12.7711 17.3618 14.3921 18.9031 16.3855 18.9031C18.379 18.9031 20 17.3618 20 15.4663C20 15.2704 20 0.859591 20 0.859591C20 0.291306 19.4283 -0.122665 18.8484 0.0330823Z" fill="#082032"/>
</svg>
