<svg width="81" height="92" viewBox="0 0 81 92" fill="none" xmlns="http://www.w3.org/2000/svg">
<path d="M80.7529 23.0355C75.4964 23.0355 70.6465 21.2935 66.7519 18.3546C62.2852 14.9857 59.0759 10.0439 57.9426 4.34796C57.662 2.94063 57.5109 1.48831 57.4965 0H42.4809V41.0465L42.4629 63.5295C42.4629 69.5403 38.5503 74.637 33.1266 76.4294C31.5525 76.9495 29.8525 77.1961 28.0824 77.0989C25.823 76.9747 23.7056 76.2926 21.8653 75.1913C17.9491 72.8481 15.2939 68.5973 15.2219 63.7347C15.1086 56.1347 21.2501 49.9385 28.8415 49.9385C30.34 49.9385 31.7792 50.1833 33.1266 50.6278V39.4088V35.3758C31.7054 35.1652 30.2591 35.0554 28.7966 35.0554C20.4874 35.0554 12.7161 38.5107 7.161 44.7357C2.96233 49.44 0.443846 55.4419 0.0552796 61.7353C-0.453814 70.0029 2.57016 77.8619 8.43463 83.6604C9.29631 84.5117 10.2012 85.3017 11.1474 86.0306C16.1754 89.9016 22.3223 92 28.7966 92C30.2591 92 31.7054 91.892 33.1266 91.6815C39.1745 90.7852 44.7547 88.0156 49.1585 83.6604C54.5696 78.3101 57.5594 71.2068 57.5918 63.6465L57.5145 30.0722C60.0959 32.0644 62.9184 33.7129 65.9478 34.9924C70.6591 36.981 75.6547 37.9888 80.796 37.9871V27.0794V23.0319C80.7996 23.0355 80.7565 23.0355 80.7529 23.0355Z" fill="#082032"/>
</svg>
