<svg width="25" height="26" viewBox="0 0 25 26" fill="none" xmlns="http://www.w3.org/2000/svg">
<path d="M18.3996 11.7144C18.2695 11.4269 17.9836 11.2438 17.6687 11.2438H14.4562V0.803125C14.4562 0.3598 14.0964 0 13.6531 0H10.4406C9.99729 0 9.63749 0.3598 9.63749 0.803125V11.2438H6.42499C6.11016 11.2438 5.82425 11.4285 5.69414 11.7144C5.56243 12.0019 5.61383 12.3376 5.82104 12.5753L11.4429 19.0003C11.5955 19.1754 11.8156 19.275 12.0469 19.275C12.2782 19.275 12.4982 19.1738 12.6508 19.0003L18.2727 12.5753C18.4815 12.3392 18.5297 12.0019 18.3996 11.7144Z" fill="#082032"/>
<path d="M20.8813 17.6688V22.4875H3.2125V17.6688H0V24.0938C0 24.982 0.7196 25.7 1.60625 25.7H22.4875C23.3758 25.7 24.0938 24.982 24.0938 24.0938V17.6688H20.8813Z" fill="#082032"/>
</svg>
