<svg width="22" height="28" viewBox="0 0 22 28" fill="none" xmlns="http://www.w3.org/2000/svg">
<path d="M20.5652 3.82609C18.7521 3.82609 17.1221 2.81868 16.3114 1.19718L16.1095 0.793243C15.8664 0.307043 15.3696 0 14.8261 0H7.17391C6.63042 0 6.1336 0.307044 5.89055 0.793149L5.68863 1.19699C4.87788 2.81868 3.24787 3.82609 1.43478 3.82609C0.6424 3.82609 0 4.46849 0 5.26087V13.4484C0 16.6675 1.01573 19.7342 2.93729 22.3169C4.85884 24.8995 7.50439 26.7536 10.5877 27.6786C10.7222 27.719 10.8611 27.7391 11 27.7391C11.1389 27.7391 11.2778 27.719 11.4123 27.6786C14.4956 26.7536 17.1412 24.8995 19.0627 22.3169C20.9843 19.7342 22 16.6675 22 13.4484V5.26087C22 4.46849 21.3576 3.82609 20.5652 3.82609ZM19.1304 13.4484C19.1304 18.6381 15.881 23.1461 11 24.7985C6.11897 23.1461 2.86957 18.6381 2.86957 13.4484V6.56193C5.04097 6.15206 6.92876 4.82106 8.04674 2.86947H13.9533C15.0712 4.82096 16.959 6.15206 19.1304 6.56193V13.4484Z" fill="white"/>
<path d="M14.0437 10.1496L9.64732 14.5459L7.95638 12.855C7.39615 12.2947 6.48764 12.2947 5.92731 12.855C5.36698 13.4153 5.36698 14.3238 5.92731 14.8841L8.63274 17.5895C8.9129 17.8697 9.28011 18.0098 9.64723 18.0098C10.0143 18.0098 10.3816 17.8698 10.6617 17.5895L16.0726 12.1787C16.6329 11.6183 16.6329 10.7099 16.0726 10.1496C15.5124 9.58926 14.6039 9.58926 14.0437 10.1496Z" fill="white"/>
</svg>
