<svg width="17" height="15" viewBox="0 0 17 15" fill="none" xmlns="http://www.w3.org/2000/svg">
<path d="M16.8978 7.6212C16.7139 7.29429 16.2849 7.17169 15.9375 7.37601L13.6082 8.72456L13.0157 9.07191V12.3002L13.5673 12.6272C13.5878 12.6272 13.5878 12.6476 13.6082 12.6476L15.8966 13.9757C15.9988 14.0574 16.1418 14.0983 16.2849 14.0983C16.6731 14.0983 16.9796 13.7918 16.9796 13.4036V10.6656L17 7.96856C17 7.84596 16.9796 7.72337 16.8978 7.6212Z" fill="white"/>
<path d="M3.28983 6.57925C5.10832 6.57925 6.57945 5.10811 6.57945 3.28962C6.57945 1.47114 5.10832 0 3.28983 0C1.47134 0 0.000207453 1.47114 0.000207453 3.28962C-0.020225 5.10811 1.47134 6.57925 3.28983 6.57925ZM3.28983 1.94108C4.04583 1.94108 4.63837 2.55406 4.63837 3.28962C4.63837 4.04562 4.0254 4.63816 3.28983 4.63816C2.55426 4.63816 1.94129 4.02519 1.94129 3.28962C1.92086 2.53362 2.53383 1.94108 3.28983 1.94108Z" fill="white"/>
<path d="M11.6263 6.76316C11.095 7.02878 10.5025 7.19224 9.86906 7.19224C9.09263 7.19224 8.35706 6.96749 7.74409 6.55884H5.41479C4.80182 6.96749 4.06625 7.19224 3.28982 7.19224C2.65641 7.19224 2.06387 7.04922 1.53263 6.76316C1.06268 7.02878 0.735764 7.56003 0.735764 8.13214V13.1177C0.735764 14.0371 1.49176 14.7727 2.39079 14.7727H10.7885C11.708 14.7727 12.4436 14.0167 12.4436 13.1177V8.13214C12.4231 7.56003 12.0962 7.02878 11.6263 6.76316Z" fill="white"/>
<path d="M9.86905 6.57925C11.6875 6.57925 13.1587 5.10811 13.1587 3.28962C13.1587 1.47114 11.6875 0 9.86905 0C8.05057 0 6.57943 1.47114 6.57943 3.28962C6.57943 5.10811 8.05057 6.57925 9.86905 6.57925ZM9.86905 1.94108C10.6251 1.94108 11.2176 2.55406 11.2176 3.28962C11.2176 4.04562 10.6046 4.63816 9.86905 4.63816C9.13348 4.63816 8.52051 4.02519 8.52051 3.28962C8.52051 2.53362 9.11305 1.94108 9.86905 1.94108Z" fill="white"/>
</svg>
