<svg width="33" height="27" viewBox="0 0 33 27" fill="none" xmlns="http://www.w3.org/2000/svg">
<path d="M26.853 6.40928H14.9471L12.5788 3.59458C12.4992 3.49881 12.3798 3.44511 12.2553 3.44899H2.64971C1.18315 3.45966 0 4.65155 0 6.11811V23.4302C0.00177941 24.9018 1.19431 26.0943 2.66588 26.0961H26.853C28.3245 26.0943 29.5171 24.9018 29.5188 23.4302V9.07517C29.5171 7.60359 28.3245 6.41106 26.853 6.40928Z" fill="white"/>
<path d="M30.3503 2.96049H18.4411L16.0729 0.145785C15.9932 0.0500204 15.8739 -0.00368546 15.7494 0.000196898H6.14702C4.81634 0.00238072 3.69111 0.985426 3.51025 2.30373H12.2682C12.7275 2.3026 13.1635 2.50529 13.4588 2.85696L15.4809 5.26079H26.8529C28.9563 5.26435 30.6605 6.96862 30.6641 9.07197V22.6214C31.9977 22.455 32.9989 21.3221 33 19.9782V5.62314C32.9965 4.15909 31.8142 2.97117 30.3503 2.96049Z" fill="white"/>
<path d="M17.7935 15.774C17.732 15.6382 17.597 15.5517 17.4483 15.5517H15.931V10.6206C15.931 10.4113 15.7611 10.2413 15.5517 10.2413H14.0345C13.8251 10.2413 13.6552 10.4113 13.6552 10.6206V15.5517H12.1379C11.9892 15.5517 11.8542 15.6389 11.7928 15.774C11.7306 15.9097 11.7548 16.0683 11.8527 16.1806L14.5079 19.2151C14.5799 19.2977 14.6839 19.3448 14.7931 19.3448C14.9023 19.3448 15.0063 19.297 15.0783 19.2151L17.7335 16.1806C17.8321 16.0691 17.8549 15.9097 17.7935 15.774Z" fill="#082032"/>
<path d="M18.9655 18.5862V20.862H10.6207V18.5862H9.10345V21.6207C9.10345 22.0402 9.44332 22.3793 9.86208 22.3793H19.7241C20.1437 22.3793 20.4828 22.0402 20.4828 21.6207V18.5862H18.9655Z" fill="#082032"/>
</svg>
