<svg width="23" height="26" viewBox="0 0 23 26" fill="none" xmlns="http://www.w3.org/2000/svg">
<path d="M22.9876 6.51005C21.4913 6.51005 20.1107 6.01772 19.002 5.18718C17.7305 4.23509 16.8169 2.83848 16.4943 1.22877C16.4144 0.831048 16.3714 0.42061 16.3673 0H12.0929V11.6001L12.0878 17.954C12.0878 19.6527 10.974 21.0931 9.43003 21.5996C8.98195 21.7466 8.49802 21.8163 7.99412 21.7888C7.35094 21.7537 6.7482 21.561 6.22433 21.2497C5.10951 20.5875 4.35366 19.3862 4.33318 18.012C4.30092 15.8642 6.0492 14.1131 8.21022 14.1131C8.6368 14.1131 9.04647 14.1822 9.43003 14.3079V11.1373V9.9975C9.02547 9.93799 8.61375 9.90697 8.19742 9.90697C5.83207 9.90697 3.61984 10.8835 2.0385 12.6427C0.843276 13.9722 0.126348 15.6684 0.0157363 17.4469C-0.129186 19.7834 0.73164 22.0045 2.40106 23.6432C2.64635 23.8837 2.90393 24.107 3.17329 24.313C4.60459 25.407 6.3544 26 8.19742 26C8.61375 26 9.02547 25.9695 9.43003 25.91C11.1517 25.6567 12.7402 24.874 13.9938 23.6432C15.5342 22.1311 16.3853 20.1237 16.3945 17.987L16.3725 8.49866C17.1073 9.06168 17.9108 9.52755 18.7731 9.88917C20.1143 10.4512 21.5364 10.736 22.9999 10.7355V7.65286V6.50903C23.001 6.51004 22.9887 6.51005 22.9876 6.51005V6.51005Z" fill="white"/>
</svg>
