<svg width="16" height="18" viewBox="0 0 16 18" fill="none" xmlns="http://www.w3.org/2000/svg">
<path d="M12.2187 8.41255C12.1323 8.22161 11.9424 8.10001 11.7333 8.10001H9.59999V1.16668C9.59999 0.87228 9.36106 0.633347 9.06666 0.633347H6.93333C6.63893 0.633347 6.39999 0.87228 6.39999 1.16668V8.10001H4.26666C4.05759 8.10001 3.86773 8.22268 3.78133 8.41255C3.69386 8.60348 3.72799 8.82641 3.86559 8.98428L7.59893 13.2509C7.70026 13.3672 7.84639 13.4333 7.99999 13.4333C8.15359 13.4333 8.29973 13.3661 8.40106 13.2509L12.1344 8.98428C12.2731 8.82748 12.3051 8.60348 12.2187 8.41255Z" fill="#082032"/>
<path d="M13.8667 12.3667V15.5667H2.13333V12.3667H0V16.6334C0 17.2232 0.477867 17.7 1.06667 17.7H14.9333C15.5232 17.7 16 17.2232 16 16.6334V12.3667H13.8667Z" fill="#082032"/>
</svg>
