<svg width="22" height="20" viewBox="0 0 22 20" fill="none" xmlns="http://www.w3.org/2000/svg">
<path d="M16.1562 0C14.9624 0 13.8679 0.378297 12.9032 1.12441C11.9783 1.83971 11.3625 2.75077 11 3.41327C10.6375 2.75073 10.0217 1.83971 9.09679 1.12441C8.13205 0.378297 7.03755 0 5.84375 0C2.5123 0 0 2.72495 0 6.33849C0 10.2424 3.13427 12.9134 7.87914 16.9568C8.68489 17.6435 9.59819 18.4219 10.5475 19.252C10.6726 19.3615 10.8333 19.4219 11 19.4219C11.1667 19.4219 11.3274 19.3615 11.4525 19.252C12.4019 18.4218 13.3152 17.6435 14.1214 16.9564C18.8657 12.9134 22 10.2424 22 6.33849C22 2.72495 19.4877 0 16.1562 0Z" fill="#0A2233"/>
</svg>
