<svg width="21" height="21" viewBox="0 0 21 21" fill="none" xmlns="http://www.w3.org/2000/svg">
<path d="M8.58441 4.36681C7.47531 3.55392 6.33738 2.55204 5.52749 1.3372L4.81849 0.273754C4.6683 0.0484563 4.38832 -0.0518675 4.12816 0.0262259C3.86862 0.104935 3.69139 0.344055 3.69139 0.615044V10.2678C3.32799 10.0559 2.91115 9.92555 2.46093 9.92555C1.10368 9.92555 0 11.0292 0 12.3865C0 13.7437 1.10368 14.8474 2.46093 14.8474C3.81817 14.8474 4.92185 13.7437 4.92185 12.3864V2.6351C5.79122 3.73398 6.8787 4.64198 7.85684 5.35934C8.33746 5.71142 8.61324 6.25459 8.61324 6.84935C8.61324 7.86711 7.78531 8.69505 6.76755 8.69505C6.42749 8.69505 6.15232 8.97022 6.15232 9.31028C6.15232 9.65034 6.42749 9.92551 6.76755 9.92551C8.46366 9.92551 9.84371 8.54546 9.84371 6.84935C9.84371 5.87302 9.37326 4.94537 8.58441 4.36681Z" fill="white"/>
<path d="M20.2158 5.02662L11.5206 7.48755C11.2562 7.56326 11.0741 7.80476 11.0741 8.07936V16.4196C10.7107 16.2077 10.2939 16.0774 9.84368 16.0774C8.48644 16.0774 7.38275 17.1811 7.38275 18.5383C7.38275 19.8955 8.48644 20.9992 9.84368 20.9992C11.2009 20.9992 12.3046 19.8955 12.3046 18.5383C12.3046 18.398 12.3046 11.0046 12.3046 11.0046L19.7694 8.8952V13.9587C19.406 13.7467 18.9892 13.6164 18.539 13.6164C17.1817 13.6164 16.078 14.7201 16.078 16.0774C16.078 17.4346 17.1817 18.5383 18.539 18.5383C19.8962 18.5383 20.9999 17.4346 20.9999 16.0774C20.9999 15.9371 20.9999 5.61843 20.9999 5.61843C20.9999 5.21152 20.6106 4.9151 20.2158 5.02662Z" fill="white"/>
</svg>
