<svg width="22" height="23" viewBox="0 0 22 23" fill="none" xmlns="http://www.w3.org/2000/svg">
<path d="M17.5195 14.9141C16.1882 14.9141 15.0053 15.561 14.2682 16.5569L7.92206 13.3138C8.02853 12.9521 8.08594 12.5695 8.08594 12.1738C8.08594 11.6379 7.98087 11.1261 7.79062 10.6576L14.4418 6.66142C15.1839 7.53245 16.2882 8.08594 17.5195 8.08594C19.7488 8.08594 21.5625 6.27226 21.5625 4.04297C21.5625 1.81368 19.7488 0 17.5195 0C15.2902 0 13.4766 1.81368 13.4766 4.04297C13.4766 4.55822 13.5736 5.05115 13.7501 5.50473L7.08238 9.51086C6.34081 8.66552 5.25321 8.13086 4.04297 8.13086C1.81368 8.13086 0 9.94454 0 12.1738C0 14.4031 1.81368 16.2168 4.04297 16.2168C5.39611 16.2168 6.59597 15.5485 7.33022 14.5248L13.6579 17.7585C13.5401 18.1373 13.4766 18.5399 13.4766 18.957C13.4766 21.1863 15.2902 23 17.5195 23C19.7488 23 21.5625 21.1863 21.5625 18.957C21.5625 16.7277 19.7488 14.9141 17.5195 14.9141ZM17.5195 1.34766C19.0057 1.34766 20.2148 2.55677 20.2148 4.04297C20.2148 5.52916 19.0057 6.73828 17.5195 6.73828C16.0333 6.73828 14.8242 5.52916 14.8242 4.04297C14.8242 2.55677 16.0333 1.34766 17.5195 1.34766ZM4.04297 14.8691C2.55677 14.8691 1.34766 13.66 1.34766 12.1738C1.34766 10.6876 2.55677 9.47852 4.04297 9.47852C5.52916 9.47852 6.73828 10.6876 6.73828 12.1738C6.73828 13.66 5.52916 14.8691 4.04297 14.8691ZM17.5195 21.6523C16.0333 21.6523 14.8242 20.4432 14.8242 18.957C14.8242 17.4708 16.0333 16.2617 17.5195 16.2617C19.0057 16.2617 20.2148 17.4708 20.2148 18.957C20.2148 20.4432 19.0057 21.6523 17.5195 21.6523Z" fill="white"/>
</svg>
