<svg width="18" height="18" viewBox="0 0 18 18" fill="none" xmlns="http://www.w3.org/2000/svg">
<g clip-path="url(#clip0_22_528)">
<path d="M11.9763 10.2704C14.0539 7.33663 13.359 3.27424 10.4252 1.19713C7.49149 -0.879973 3.4291 -0.185619 1.35199 2.74863C-0.725112 5.68239 -0.0307579 9.74428 2.90349 11.8214C4.99748 13.3039 7.76596 13.4181 9.97459 12.1137L14.7735 16.8839C15.2917 17.4293 16.1538 17.4512 16.6992 16.933C17.2447 16.4153 17.2665 15.5532 16.7489 15.0078C16.7325 14.9904 16.7166 14.9745 16.6992 14.9581L11.9763 10.2704ZM6.66015 10.7151C4.34183 10.7156 2.46226 8.83751 2.46078 6.51919C2.46028 4.20087 4.33836 2.3213 6.65717 2.32031C8.97251 2.31931 10.8511 4.19442 10.8556 6.50976C10.8595 8.82857 8.98244 10.7111 6.66313 10.7151C6.66214 10.7151 6.66164 10.7151 6.66015 10.7151Z" fill="#082032"/>
</g>
<defs>
<clipPath id="clip0_22_528">
<rect width="17.3077" height="17.3077" fill="white"/>
</clipPath>
</defs>
</svg>
