<svg width="25" height="26" viewBox="0 0 25 26" fill="none" xmlns="http://www.w3.org/2000/svg">
<path d="M13.401 3.24592C12.9995 2.52643 12.0005 2.52642 11.599 3.24592L8.77189 8.31301C8.57358 8.66843 8.23082 8.91098 7.84013 8.97235L2.54189 9.80459C1.65201 9.94437 1.33987 11.1129 2.03289 11.71L5.97986 15.1108C6.34522 15.4256 6.51701 15.9222 6.42826 16.4069L5.39579 22.0458C5.23258 22.9372 6.13236 23.6298 6.90439 23.207L11.8934 20.4751C12.2731 20.2671 12.7269 20.2671 13.1066 20.4751L18.0956 23.207C18.8676 23.6298 19.7674 22.9372 19.6042 22.0458L18.5717 16.4069C18.483 15.9222 18.6548 15.4256 19.0201 15.1108L22.9671 11.71C23.6601 11.1129 23.348 9.94438 22.4581 9.80459L17.1599 8.97235C16.7692 8.91098 16.4264 8.66843 16.2281 8.31301L13.401 3.24592Z" fill="white"/>
</svg>
